<?xml version="1.0" standalone="no"?>
<!DOCTYPE svg PUBLIC "-//W3C//DTD SVG 20010904//EN"
 "http://www.w3.org/TR/2001/REC-SVG-20010904/DTD/svg10.dtd">
<svg version="1.0" xmlns="http://www.w3.org/2000/svg"
 width="200.000000pt" height="200.000000pt" viewBox="0 0 200.000000 200.000000"
 preserveAspectRatio="xMidYMid meet">
<metadata>
Created by potrace 1.16, written by Peter Selinger 2001-2019
</metadata>
<g transform="translate(0.000000,200.000000) scale(0.100000,-0.100000)"
fill="#000000" stroke="none">
<path d="M530 1784 l-195 -114 -98 -171 c-54 -94 -97 -174 -95 -178 2 -4 134
68 293 161 160 92 297 170 306 173 9 3 125 -59 285 -153 148 -87 290 -170 317
-185 l47 -28 0 123 -1 123 -311 180 c-171 99 -321 181 -332 182 -12 1 -109
-50 -216 -113z"/>
<path d="M1680 1227 l0 -352 -202 -122 c-112 -66 -256 -151 -321 -188 -65 -37
-115 -71 -110 -75 16 -14 185 -110 194 -110 5 0 153 84 329 187 l320 186 0
244 0 244 -97 169 c-54 93 -101 170 -105 170 -5 0 -8 -159 -8 -353z"/>
<path d="M458 1162 l-98 -56 0 -382 0 -382 196 -111 197 -111 205 0 c113 0
202 3 198 8 -4 4 -139 81 -299 172 l-292 166 -5 376 -5 376 -97 -56z"/>
</g>
</svg>
